<?xml version="1.0" encoding="UTF-8" standalone="no"?>
<svg xmlns="http://www.w3.org/2000/svg" width="270.000000mm" height="270.000000mm" x="0" y="0" viewBox="0 0 270.000000 270.000000">
<path stroke="#0000ff" fill="none" stroke-width=".1mm" d="M22.238117 30.300713 L30.336903 22.154484 Q33.786537 18.763889, 31.528469 14.486359 L31.528469 14.486359 L26.283609 4.266635 Q24.124954 -0.061914, 19.359001 0.763807 L19.359001 0.763807 L8.018717 2.593898 Q3.234960 3.309305, 2.547509 8.097156 L2.547509 8.097156 L0.783688 19.447943 Q-0.014185 24.218632, 4.326896 26.351961 L4.326896 26.351961 L14.577089 31.537045 Q18.867729 33.770088, 22.238113 30.300713 Z" />
<circle  cx="17.720636" cy="26.662056" r="1.500000" stroke="#0000ff" fill="none" stroke-width=".1mm" />
<circle  cx="26.671923" cy="17.658333" r="1.500000" stroke="#ff0000" fill="none" stroke-width=".1mm" />
<circle  cx="20.874973" cy="6.362851" r="1.500000" stroke="#ff0000" fill="none" stroke-width=".1mm" />
<circle  cx="8.340976" cy="8.385583" r="1.500000" stroke="#ff0000" fill="none" stroke-width=".1mm" />
<circle  cx="6.391489" cy="20.931179" r="1.500000" stroke="#ff0000" fill="none" stroke-width=".1mm" />
<path stroke="#0000ff" fill="none" stroke-width=".1mm" d="M55.238117 30.300713 L63.336903 22.154484 Q66.786537 18.763889, 64.528473 14.486359 L64.528473 14.486359 L59.283607 4.266635 Q57.124954 -0.061914, 52.359001 0.763807 L52.359001 0.763807 L41.018715 2.593898 Q36.234959 3.309305, 35.547508 8.097156 L35.547508 8.097156 L33.783688 19.447943 Q32.985817 24.218632, 37.326897 26.351961 L37.326897 26.351961 L47.577091 31.537045 Q51.867729 33.770088, 55.238113 30.300713 Z" />
<circle  cx="50.720638" cy="26.662056" r="1.500000" stroke="#0000ff" fill="none" stroke-width=".1mm" />
<circle  cx="59.671921" cy="17.658333" r="1.500000" stroke="#ff0000" fill="none" stroke-width=".1mm" />
<circle  cx="53.874973" cy="6.362851" r="1.500000" stroke="#ff0000" fill="none" stroke-width=".1mm" />
<circle  cx="41.340977" cy="8.385583" r="1.500000" stroke="#ff0000" fill="none" stroke-width=".1mm" />
<circle  cx="39.391487" cy="20.931179" r="1.500000" stroke="#ff0000" fill="none" stroke-width=".1mm" />
<path stroke="#0000ff" fill="none" stroke-width=".1mm" d="M88.238121 30.300713 L96.336899 22.154484 Q99.786537 18.763889, 97.528473 14.486359 L97.528473 14.486359 L92.283607 4.266635 Q90.124954 -0.061914, 85.359001 0.763807 L85.359001 0.763807 L74.018715 2.593898 Q69.234962 3.309305, 68.547508 8.097156 L68.547508 8.097156 L66.783691 19.447943 Q65.985817 24.218632, 70.326897 26.351961 L70.326897 26.351961 L80.577087 31.537045 Q84.867729 33.770088, 88.238113 30.300713 Z" />
<circle  cx="83.720634" cy="26.662056" r="1.500000" stroke="#0000ff" fill="none" stroke-width=".1mm" />
<circle  cx="92.671921" cy="17.658333" r="1.500000" stroke="#ff0000" fill="none" stroke-width=".1mm" />
<circle  cx="86.874969" cy="6.362851" r="1.500000" stroke="#ff0000" fill="none" stroke-width=".1mm" />
<circle  cx="74.340973" cy="8.385583" r="1.500000" stroke="#ff0000" fill="none" stroke-width=".1mm" />
<circle  cx="72.391487" cy="20.931179" r="1.500000" stroke="#ff0000" fill="none" stroke-width=".1mm" />
<path stroke="#0000ff" fill="none" stroke-width=".1mm" d="M121.238121 30.300713 L129.336899 22.154484 Q132.786530 18.763889, 130.528473 14.486359 L130.528473 14.486359 L125.283607 4.266635 Q123.124954 -0.061914, 118.359001 0.763807 L118.359001 0.763807 L107.018715 2.593898 Q102.234962 3.309305, 101.547508 8.097156 L101.547508 8.097156 L99.783691 19.447943 Q98.985817 24.218632, 103.326897 26.351961 L103.326897 26.351961 L113.577087 31.537045 Q117.867729 33.770088, 121.238113 30.300713 Z" />
<circle  cx="116.720634" cy="26.662056" r="1.500000" stroke="#0000ff" fill="none" stroke-width=".1mm" />
<circle  cx="125.671921" cy="17.658333" r="1.500000" stroke="#ff0000" fill="none" stroke-width=".1mm" />
<circle  cx="119.874969" cy="6.362851" r="1.500000" stroke="#ff0000" fill="none" stroke-width=".1mm" />
<circle  cx="107.340973" cy="8.385583" r="1.500000" stroke="#ff0000" fill="none" stroke-width=".1mm" />
<circle  cx="105.391487" cy="20.931179" r="1.500000" stroke="#ff0000" fill="none" stroke-width=".1mm" />
<path stroke="#0000ff" fill="none" stroke-width=".1mm" d="M154.238113 30.300713 L162.336899 22.154484 Q165.786530 18.763889, 163.528473 14.486359 L163.528473 14.486359 L158.283615 4.266635 Q156.124954 -0.061914, 151.358994 0.763807 L151.358994 0.763807 L140.018723 2.593898 Q135.234955 3.309305, 134.547516 8.097156 L134.547516 8.097156 L132.783691 19.447943 Q131.985809 24.218632, 136.326889 26.351961 L136.326889 26.351961 L146.577087 31.537045 Q150.867722 33.770088, 154.238113 30.300713 Z" />
<circle  cx="149.720642" cy="26.662056" r="1.500000" stroke="#0000ff" fill="none" stroke-width=".1mm" />
<circle  cx="158.671921" cy="17.658333" r="1.500000" stroke="#ff0000" fill="none" stroke-width=".1mm" />
<circle  cx="152.874969" cy="6.362851" r="1.500000" stroke="#ff0000" fill="none" stroke-width=".1mm" />
<circle  cx="140.340973" cy="8.385583" r="1.500000" stroke="#ff0000" fill="none" stroke-width=".1mm" />
<circle  cx="138.391495" cy="20.931179" r="1.500000" stroke="#ff0000" fill="none" stroke-width=".1mm" />
<path stroke="#0000ff" fill="none" stroke-width=".1mm" d="M187.238113 30.300713 L195.336899 22.154484 Q198.786530 18.763889, 196.528473 14.486359 L196.528473 14.486359 L191.283615 4.266635 Q189.124954 -0.061914, 184.358994 0.763807 L184.358994 0.763807 L173.018723 2.593898 Q168.234955 3.309305, 167.547516 8.097156 L167.547516 8.097156 L165.783691 19.447943 Q164.985809 24.218632, 169.326889 26.351961 L169.326889 26.351961 L179.577087 31.537045 Q183.867722 33.770088, 187.238113 30.300713 Z" />
<circle  cx="182.720642" cy="26.662056" r="1.500000" stroke="#0000ff" fill="none" stroke-width=".1mm" />
<circle  cx="191.671921" cy="17.658333" r="1.500000" stroke="#ff0000" fill="none" stroke-width=".1mm" />
<circle  cx="185.874969" cy="6.362851" r="1.500000" stroke="#ff0000" fill="none" stroke-width=".1mm" />
<circle  cx="173.340973" cy="8.385583" r="1.500000" stroke="#ff0000" fill="none" stroke-width=".1mm" />
<circle  cx="171.391495" cy="20.931179" r="1.500000" stroke="#ff0000" fill="none" stroke-width=".1mm" />
<path stroke="#0000ff" fill="none" stroke-width=".1mm" d="M220.238113 30.300713 L228.336899 22.154484 Q231.786530 18.763889, 229.528473 14.486359 L229.528473 14.486359 L224.283615 4.266635 Q222.124954 -0.061914, 217.358994 0.763807 L217.358994 0.763807 L206.018723 2.593898 Q201.234955 3.309305, 200.547516 8.097156 L200.547516 8.097156 L198.783691 19.447943 Q197.985809 24.218632, 202.326889 26.351961 L202.326889 26.351961 L212.577087 31.537045 Q216.867722 33.770088, 220.238113 30.300713 Z" />
<circle  cx="215.720642" cy="26.662056" r="1.500000" stroke="#0000ff" fill="none" stroke-width=".1mm" />
<circle  cx="224.671921" cy="17.658333" r="1.500000" stroke="#ff0000" fill="none" stroke-width=".1mm" />
<circle  cx="218.874969" cy="6.362851" r="1.500000" stroke="#ff0000" fill="none" stroke-width=".1mm" />
<circle  cx="206.340973" cy="8.385583" r="1.500000" stroke="#ff0000" fill="none" stroke-width=".1mm" />
<circle  cx="204.391495" cy="20.931179" r="1.500000" stroke="#ff0000" fill="none" stroke-width=".1mm" />
<path stroke="#0000ff" fill="none" stroke-width=".1mm" d="M22.238117 63.300713 L30.336903 55.154484 Q33.786537 51.763889, 31.528469 47.486359 L31.528469 47.486359 L26.283609 37.266636 Q24.124954 32.938087, 19.359001 33.763809 L19.359001 33.763809 L8.018717 35.593899 Q3.234960 36.309303, 2.547509 41.097157 L2.547509 41.097157 L0.783688 52.447945 Q-0.014185 57.218632, 4.326896 59.351959 L4.326896 59.351959 L14.577089 64.537048 Q18.867729 66.770088, 22.238113 63.300713 Z" />
<circle  cx="17.720636" cy="59.662056" r="1.500000" stroke="#0000ff" fill="none" stroke-width=".1mm" />
<circle  cx="26.671923" cy="50.658333" r="1.500000" stroke="#ff0000" fill="none" stroke-width=".1mm" />
<circle  cx="20.874973" cy="39.362850" r="1.500000" stroke="#ff0000" fill="none" stroke-width=".1mm" />
<circle  cx="8.340976" cy="41.385582" r="1.500000" stroke="#ff0000" fill="none" stroke-width=".1mm" />
<circle  cx="6.391489" cy="53.931179" r="1.500000" stroke="#ff0000" fill="none" stroke-width=".1mm" />
<path stroke="#0000ff" fill="none" stroke-width=".1mm" d="M55.238117 63.300713 L63.336903 55.154484 Q66.786537 51.763889, 64.528473 47.486359 L64.528473 47.486359 L59.283607 37.266636 Q57.124954 32.938087, 52.359001 33.763809 L52.359001 33.763809 L41.018715 35.593899 Q36.234959 36.309303, 35.547508 41.097157 L35.547508 41.097157 L33.783688 52.447945 Q32.985817 57.218632, 37.326897 59.351959 L37.326897 59.351959 L47.577091 64.537048 Q51.867729 66.770088, 55.238113 63.300713 Z" />
<circle  cx="50.720638" cy="59.662056" r="1.500000" stroke="#0000ff" fill="none" stroke-width=".1mm" />
<circle  cx="59.671921" cy="50.658333" r="1.500000" stroke="#ff0000" fill="none" stroke-width=".1mm" />
<circle  cx="53.874973" cy="39.362850" r="1.500000" stroke="#ff0000" fill="none" stroke-width=".1mm" />
<circle  cx="41.340977" cy="41.385582" r="1.500000" stroke="#ff0000" fill="none" stroke-width=".1mm" />
<circle  cx="39.391487" cy="53.931179" r="1.500000" stroke="#ff0000" fill="none" stroke-width=".1mm" />
<path stroke="#0000ff" fill="none" stroke-width=".1mm" d="M88.238121 63.300713 L96.336899 55.154484 Q99.786537 51.763889, 97.528473 47.486359 L97.528473 47.486359 L92.283607 37.266636 Q90.124954 32.938087, 85.359001 33.763809 L85.359001 33.763809 L74.018715 35.593899 Q69.234962 36.309303, 68.547508 41.097157 L68.547508 41.097157 L66.783691 52.447945 Q65.985817 57.218632, 70.326897 59.351959 L70.326897 59.351959 L80.577087 64.537048 Q84.867729 66.770088, 88.238113 63.300713 Z" />
<circle  cx="83.720634" cy="59.662056" r="1.500000" stroke="#0000ff" fill="none" stroke-width=".1mm" />
<circle  cx="92.671921" cy="50.658333" r="1.500000" stroke="#ff0000" fill="none" stroke-width=".1mm" />
<circle  cx="86.874969" cy="39.362850" r="1.500000" stroke="#ff0000" fill="none" stroke-width=".1mm" />
<circle  cx="74.340973" cy="41.385582" r="1.500000" stroke="#ff0000" fill="none" stroke-width=".1mm" />
<circle  cx="72.391487" cy="53.931179" r="1.500000" stroke="#ff0000" fill="none" stroke-width=".1mm" />
<path stroke="#0000ff" fill="none" stroke-width=".1mm" d="M121.238121 63.300713 L129.336899 55.154484 Q132.786530 51.763889, 130.528473 47.486359 L130.528473 47.486359 L125.283607 37.266636 Q123.124954 32.938087, 118.359001 33.763809 L118.359001 33.763809 L107.018715 35.593899 Q102.234962 36.309303, 101.547508 41.097157 L101.547508 41.097157 L99.783691 52.447945 Q98.985817 57.218632, 103.326897 59.351959 L103.326897 59.351959 L113.577087 64.537048 Q117.867729 66.770088, 121.238113 63.300713 Z" />
<circle  cx="116.720634" cy="59.662056" r="1.500000" stroke="#0000ff" fill="none" stroke-width=".1mm" />
<circle  cx="125.671921" cy="50.658333" r="1.500000" stroke="#ff0000" fill="none" stroke-width=".1mm" />
<circle  cx="119.874969" cy="39.362850" r="1.500000" stroke="#ff0000" fill="none" stroke-width=".1mm" />
<circle  cx="107.340973" cy="41.385582" r="1.500000" stroke="#ff0000" fill="none" stroke-width=".1mm" />
<circle  cx="105.391487" cy="53.931179" r="1.500000" stroke="#ff0000" fill="none" stroke-width=".1mm" />
<path stroke="#0000ff" fill="none" stroke-width=".1mm" d="M154.238113 63.300713 L162.336899 55.154484 Q165.786530 51.763889, 163.528473 47.486359 L163.528473 47.486359 L158.283615 37.266636 Q156.124954 32.938087, 151.358994 33.763809 L151.358994 33.763809 L140.018723 35.593899 Q135.234955 36.309303, 134.547516 41.097157 L134.547516 41.097157 L132.783691 52.447945 Q131.985809 57.218632, 136.326889 59.351959 L136.326889 59.351959 L146.577087 64.537048 Q150.867722 66.770088, 154.238113 63.300713 Z" />
<circle  cx="149.720642" cy="59.662056" r="1.500000" stroke="#0000ff" fill="none" stroke-width=".1mm" />
<circle  cx="158.671921" cy="50.658333" r="1.500000" stroke="#ff0000" fill="none" stroke-width=".1mm" />
<circle  cx="152.874969" cy="39.362850" r="1.500000" stroke="#ff0000" fill="none" stroke-width=".1mm" />
<circle  cx="140.340973" cy="41.385582" r="1.500000" stroke="#ff0000" fill="none" stroke-width=".1mm" />
<circle  cx="138.391495" cy="53.931179" r="1.500000" stroke="#ff0000" fill="none" stroke-width=".1mm" />
<path stroke="#0000ff" fill="none" stroke-width=".1mm" d="M187.238113 63.300713 L195.336899 55.154484 Q198.786530 51.763889, 196.528473 47.486359 L196.528473 47.486359 L191.283615 37.266636 Q189.124954 32.938087, 184.358994 33.763809 L184.358994 33.763809 L173.018723 35.593899 Q168.234955 36.309303, 167.547516 41.097157 L167.547516 41.097157 L165.783691 52.447945 Q164.985809 57.218632, 169.326889 59.351959 L169.326889 59.351959 L179.577087 64.537048 Q183.867722 66.770088, 187.238113 63.300713 Z" />
<circle  cx="182.720642" cy="59.662056" r="1.500000" stroke="#0000ff" fill="none" stroke-width=".1mm" />
<circle  cx="191.671921" cy="50.658333" r="1.500000" stroke="#ff0000" fill="none" stroke-width=".1mm" />
<circle  cx="185.874969" cy="39.362850" r="1.500000" stroke="#ff0000" fill="none" stroke-width=".1mm" />
<circle  cx="173.340973" cy="41.385582" r="1.500000" stroke="#ff0000" fill="none" stroke-width=".1mm" />
<circle  cx="171.391495" cy="53.931179" r="1.500000" stroke="#ff0000" fill="none" stroke-width=".1mm" />
<path stroke="#0000ff" fill="none" stroke-width=".1mm" d="M220.238113 63.300713 L228.336899 55.154484 Q231.786530 51.763889, 229.528473 47.486359 L229.528473 47.486359 L224.283615 37.266636 Q222.124954 32.938087, 217.358994 33.763809 L217.358994 33.763809 L206.018723 35.593899 Q201.234955 36.309303, 200.547516 41.097157 L200.547516 41.097157 L198.783691 52.447945 Q197.985809 57.218632, 202.326889 59.351959 L202.326889 59.351959 L212.577087 64.537048 Q216.867722 66.770088, 220.238113 63.300713 Z" />
<circle  cx="215.720642" cy="59.662056" r="1.500000" stroke="#0000ff" fill="none" stroke-width=".1mm" />
<circle  cx="224.671921" cy="50.658333" r="1.500000" stroke="#ff0000" fill="none" stroke-width=".1mm" />
<circle  cx="218.874969" cy="39.362850" r="1.500000" stroke="#ff0000" fill="none" stroke-width=".1mm" />
<circle  cx="206.340973" cy="41.385582" r="1.500000" stroke="#ff0000" fill="none" stroke-width=".1mm" />
<circle  cx="204.391495" cy="53.931179" r="1.500000" stroke="#ff0000" fill="none" stroke-width=".1mm" />
<path stroke="#0000ff" fill="none" stroke-width=".1mm" d="M22.238117 96.300713 L30.336903 88.154488 Q33.786537 84.763885, 31.528469 80.486359 L31.528469 80.486359 L26.283609 70.266632 Q24.124954 65.938087, 19.359001 66.763809 L19.359001 66.763809 L8.018717 68.593895 Q3.234960 69.309303, 2.547509 74.097153 L2.547509 74.097153 L0.783688 85.447945 Q-0.014185 90.218628, 4.326896 92.351959 L4.326896 92.351959 L14.577089 97.537048 Q18.867729 99.770088, 22.238113 96.300713 Z" />
<circle  cx="17.720636" cy="92.662056" r="1.500000" stroke="#0000ff" fill="none" stroke-width=".1mm" />
<circle  cx="26.671923" cy="83.658333" r="1.500000" stroke="#ff0000" fill="none" stroke-width=".1mm" />
<circle  cx="20.874973" cy="72.362854" r="1.500000" stroke="#ff0000" fill="none" stroke-width=".1mm" />
<circle  cx="8.340976" cy="74.385582" r="1.500000" stroke="#ff0000" fill="none" stroke-width=".1mm" />
<circle  cx="6.391489" cy="86.931175" r="1.500000" stroke="#ff0000" fill="none" stroke-width=".1mm" />
<path stroke="#0000ff" fill="none" stroke-width=".1mm" d="M55.238117 96.300713 L63.336903 88.154488 Q66.786537 84.763885, 64.528473 80.486359 L64.528473 80.486359 L59.283607 70.266632 Q57.124954 65.938087, 52.359001 66.763809 L52.359001 66.763809 L41.018715 68.593895 Q36.234959 69.309303, 35.547508 74.097153 L35.547508 74.097153 L33.783688 85.447945 Q32.985817 90.218628, 37.326897 92.351959 L37.326897 92.351959 L47.577091 97.537048 Q51.867729 99.770088, 55.238113 96.300713 Z" />
<circle  cx="50.720638" cy="92.662056" r="1.500000" stroke="#0000ff" fill="none" stroke-width=".1mm" />
<circle  cx="59.671921" cy="83.658333" r="1.500000" stroke="#ff0000" fill="none" stroke-width=".1mm" />
<circle  cx="53.874973" cy="72.362854" r="1.500000" stroke="#ff0000" fill="none" stroke-width=".1mm" />
<circle  cx="41.340977" cy="74.385582" r="1.500000" stroke="#ff0000" fill="none" stroke-width=".1mm" />
<circle  cx="39.391487" cy="86.931175" r="1.500000" stroke="#ff0000" fill="none" stroke-width=".1mm" />
<path stroke="#0000ff" fill="none" stroke-width=".1mm" d="M88.238121 96.300713 L96.336899 88.154488 Q99.786537 84.763885, 97.528473 80.486359 L97.528473 80.486359 L92.283607 70.266632 Q90.124954 65.938087, 85.359001 66.763809 L85.359001 66.763809 L74.018715 68.593895 Q69.234962 69.309303, 68.547508 74.097153 L68.547508 74.097153 L66.783691 85.447945 Q65.985817 90.218628, 70.326897 92.351959 L70.326897 92.351959 L80.577087 97.537048 Q84.867729 99.770088, 88.238113 96.300713 Z" />
<circle  cx="83.720634" cy="92.662056" r="1.500000" stroke="#0000ff" fill="none" stroke-width=".1mm" />
<circle  cx="92.671921" cy="83.658333" r="1.500000" stroke="#ff0000" fill="none" stroke-width=".1mm" />
<circle  cx="86.874969" cy="72.362854" r="1.500000" stroke="#ff0000" fill="none" stroke-width=".1mm" />
<circle  cx="74.340973" cy="74.385582" r="1.500000" stroke="#ff0000" fill="none" stroke-width=".1mm" />
<circle  cx="72.391487" cy="86.931175" r="1.500000" stroke="#ff0000" fill="none" stroke-width=".1mm" />
<path stroke="#0000ff" fill="none" stroke-width=".1mm" d="M121.238121 96.300713 L129.336899 88.154488 Q132.786530 84.763885, 130.528473 80.486359 L130.528473 80.486359 L125.283607 70.266632 Q123.124954 65.938087, 118.359001 66.763809 L118.359001 66.763809 L107.018715 68.593895 Q102.234962 69.309303, 101.547508 74.097153 L101.547508 74.097153 L99.783691 85.447945 Q98.985817 90.218628, 103.326897 92.351959 L103.326897 92.351959 L113.577087 97.537048 Q117.867729 99.770088, 121.238113 96.300713 Z" />
<circle  cx="116.720634" cy="92.662056" r="1.500000" stroke="#0000ff" fill="none" stroke-width=".1mm" />
<circle  cx="125.671921" cy="83.658333" r="1.500000" stroke="#ff0000" fill="none" stroke-width=".1mm" />
<circle  cx="119.874969" cy="72.362854" r="1.500000" stroke="#ff0000" fill="none" stroke-width=".1mm" />
<circle  cx="107.340973" cy="74.385582" r="1.500000" stroke="#ff0000" fill="none" stroke-width=".1mm" />
<circle  cx="105.391487" cy="86.931175" r="1.500000" stroke="#ff0000" fill="none" stroke-width=".1mm" />
<path stroke="#0000ff" fill="none" stroke-width=".1mm" d="M154.238113 96.300713 L162.336899 88.154488 Q165.786530 84.763885, 163.528473 80.486359 L163.528473 80.486359 L158.283615 70.266632 Q156.124954 65.938087, 151.358994 66.763809 L151.358994 66.763809 L140.018723 68.593895 Q135.234955 69.309303, 134.547516 74.097153 L134.547516 74.097153 L132.783691 85.447945 Q131.985809 90.218628, 136.326889 92.351959 L136.326889 92.351959 L146.577087 97.537048 Q150.867722 99.770088, 154.238113 96.300713 Z" />
<circle  cx="149.720642" cy="92.662056" r="1.500000" stroke="#0000ff" fill="none" stroke-width=".1mm" />
<circle  cx="158.671921" cy="83.658333" r="1.500000" stroke="#ff0000" fill="none" stroke-width=".1mm" />
<circle  cx="152.874969" cy="72.362854" r="1.500000" stroke="#ff0000" fill="none" stroke-width=".1mm" />
<circle  cx="140.340973" cy="74.385582" r="1.500000" stroke="#ff0000" fill="none" stroke-width=".1mm" />
<circle  cx="138.391495" cy="86.931175" r="1.500000" stroke="#ff0000" fill="none" stroke-width=".1mm" />
<path stroke="#0000ff" fill="none" stroke-width=".1mm" d="M187.238113 96.300713 L195.336899 88.154488 Q198.786530 84.763885, 196.528473 80.486359 L196.528473 80.486359 L191.283615 70.266632 Q189.124954 65.938087, 184.358994 66.763809 L184.358994 66.763809 L173.018723 68.593895 Q168.234955 69.309303, 167.547516 74.097153 L167.547516 74.097153 L165.783691 85.447945 Q164.985809 90.218628, 169.326889 92.351959 L169.326889 92.351959 L179.577087 97.537048 Q183.867722 99.770088, 187.238113 96.300713 Z" />
<circle  cx="182.720642" cy="92.662056" r="1.500000" stroke="#0000ff" fill="none" stroke-width=".1mm" />
<circle  cx="191.671921" cy="83.658333" r="1.500000" stroke="#ff0000" fill="none" stroke-width=".1mm" />
<circle  cx="185.874969" cy="72.362854" r="1.500000" stroke="#ff0000" fill="none" stroke-width=".1mm" />
<circle  cx="173.340973" cy="74.385582" r="1.500000" stroke="#ff0000" fill="none" stroke-width=".1mm" />
<circle  cx="171.391495" cy="86.931175" r="1.500000" stroke="#ff0000" fill="none" stroke-width=".1mm" />
<path stroke="#0000ff" fill="none" stroke-width=".1mm" d="M220.238113 96.300713 L228.336899 88.154488 Q231.786530 84.763885, 229.528473 80.486359 L229.528473 80.486359 L224.283615 70.266632 Q222.124954 65.938087, 217.358994 66.763809 L217.358994 66.763809 L206.018723 68.593895 Q201.234955 69.309303, 200.547516 74.097153 L200.547516 74.097153 L198.783691 85.447945 Q197.985809 90.218628, 202.326889 92.351959 L202.326889 92.351959 L212.577087 97.537048 Q216.867722 99.770088, 220.238113 96.300713 Z" />
<circle  cx="215.720642" cy="92.662056" r="1.500000" stroke="#0000ff" fill="none" stroke-width=".1mm" />
<circle  cx="224.671921" cy="83.658333" r="1.500000" stroke="#ff0000" fill="none" stroke-width=".1mm" />
<circle  cx="218.874969" cy="72.362854" r="1.500000" stroke="#ff0000" fill="none" stroke-width=".1mm" />
<circle  cx="206.340973" cy="74.385582" r="1.500000" stroke="#ff0000" fill="none" stroke-width=".1mm" />
<circle  cx="204.391495" cy="86.931175" r="1.500000" stroke="#ff0000" fill="none" stroke-width=".1mm" />
<path stroke="#0000ff" fill="none" stroke-width=".1mm" d="M22.238117 129.300705 L30.336903 121.154488 Q33.786537 117.763885, 31.528469 113.486359 L31.528469 113.486359 L26.283609 103.266632 Q24.124954 98.938087, 19.359001 99.763809 L19.359001 99.763809 L8.018717 101.593895 Q3.234960 102.309303, 2.547509 107.097153 L2.547509 107.097153 L0.783688 118.447945 Q-0.014185 123.218628, 4.326896 125.351959 L4.326896 125.351959 L14.577089 130.537048 Q18.867729 132.770096, 22.238113 129.300720 Z" />
<circle  cx="17.720636" cy="125.662056" r="1.500000" stroke="#0000ff" fill="none" stroke-width=".1mm" />
<circle  cx="26.671923" cy="116.658333" r="1.500000" stroke="#ff0000" fill="none" stroke-width=".1mm" />
<circle  cx="20.874973" cy="105.362854" r="1.500000" stroke="#ff0000" fill="none" stroke-width=".1mm" />
<circle  cx="8.340976" cy="107.385582" r="1.500000" stroke="#ff0000" fill="none" stroke-width=".1mm" />
<circle  cx="6.391489" cy="119.931175" r="1.500000" stroke="#ff0000" fill="none" stroke-width=".1mm" />
<path stroke="#0000ff" fill="none" stroke-width=".1mm" d="M55.238117 129.300705 L63.336903 121.154488 Q66.786537 117.763885, 64.528473 113.486359 L64.528473 113.486359 L59.283607 103.266632 Q57.124954 98.938087, 52.359001 99.763809 L52.359001 99.763809 L41.018715 101.593895 Q36.234959 102.309303, 35.547508 107.097153 L35.547508 107.097153 L33.783688 118.447945 Q32.985817 123.218628, 37.326897 125.351959 L37.326897 125.351959 L47.577091 130.537048 Q51.867729 132.770096, 55.238113 129.300720 Z" />
<circle  cx="50.720638" cy="125.662056" r="1.500000" stroke="#0000ff" fill="none" stroke-width=".1mm" />
<circle  cx="59.671921" cy="116.658333" r="1.500000" stroke="#ff0000" fill="none" stroke-width=".1mm" />
<circle  cx="53.874973" cy="105.362854" r="1.500000" stroke="#ff0000" fill="none" stroke-width=".1mm" />
<circle  cx="41.340977" cy="107.385582" r="1.500000" stroke="#ff0000" fill="none" stroke-width=".1mm" />
<circle  cx="39.391487" cy="119.931175" r="1.500000" stroke="#ff0000" fill="none" stroke-width=".1mm" />
<path stroke="#0000ff" fill="none" stroke-width=".1mm" d="M88.238121 129.300705 L96.336899 121.154488 Q99.786537 117.763885, 97.528473 113.486359 L97.528473 113.486359 L92.283607 103.266632 Q90.124954 98.938087, 85.359001 99.763809 L85.359001 99.763809 L74.018715 101.593895 Q69.234962 102.309303, 68.547508 107.097153 L68.547508 107.097153 L66.783691 118.447945 Q65.985817 123.218628, 70.326897 125.351959 L70.326897 125.351959 L80.577087 130.537048 Q84.867729 132.770096, 88.238113 129.300720 Z" />
<circle  cx="83.720634" cy="125.662056" r="1.500000" stroke="#0000ff" fill="none" stroke-width=".1mm" />
<circle  cx="92.671921" cy="116.658333" r="1.500000" stroke="#ff0000" fill="none" stroke-width=".1mm" />
<circle  cx="86.874969" cy="105.362854" r="1.500000" stroke="#ff0000" fill="none" stroke-width=".1mm" />
<circle  cx="74.340973" cy="107.385582" r="1.500000" stroke="#ff0000" fill="none" stroke-width=".1mm" />
<circle  cx="72.391487" cy="119.931175" r="1.500000" stroke="#ff0000" fill="none" stroke-width=".1mm" />
<path stroke="#0000ff" fill="none" stroke-width=".1mm" d="M121.238121 129.300705 L129.336899 121.154488 Q132.786530 117.763885, 130.528473 113.486359 L130.528473 113.486359 L125.283607 103.266632 Q123.124954 98.938087, 118.359001 99.763809 L118.359001 99.763809 L107.018715 101.593895 Q102.234962 102.309303, 101.547508 107.097153 L101.547508 107.097153 L99.783691 118.447945 Q98.985817 123.218628, 103.326897 125.351959 L103.326897 125.351959 L113.577087 130.537048 Q117.867729 132.770096, 121.238113 129.300720 Z" />
<circle  cx="116.720634" cy="125.662056" r="1.500000" stroke="#0000ff" fill="none" stroke-width=".1mm" />
<circle  cx="125.671921" cy="116.658333" r="1.500000" stroke="#ff0000" fill="none" stroke-width=".1mm" />
<circle  cx="119.874969" cy="105.362854" r="1.500000" stroke="#ff0000" fill="none" stroke-width=".1mm" />
<circle  cx="107.340973" cy="107.385582" r="1.500000" stroke="#ff0000" fill="none" stroke-width=".1mm" />
<circle  cx="105.391487" cy="119.931175" r="1.500000" stroke="#ff0000" fill="none" stroke-width=".1mm" />
<path stroke="#0000ff" fill="none" stroke-width=".1mm" d="M154.238113 129.300705 L162.336899 121.154488 Q165.786530 117.763885, 163.528473 113.486359 L163.528473 113.486359 L158.283615 103.266632 Q156.124954 98.938087, 151.358994 99.763809 L151.358994 99.763809 L140.018723 101.593895 Q135.234955 102.309303, 134.547516 107.097153 L134.547516 107.097153 L132.783691 118.447945 Q131.985809 123.218628, 136.326889 125.351959 L136.326889 125.351959 L146.577087 130.537048 Q150.867722 132.770096, 154.238113 129.300720 Z" />
<circle  cx="149.720642" cy="125.662056" r="1.500000" stroke="#0000ff" fill="none" stroke-width=".1mm" />
<circle  cx="158.671921" cy="116.658333" r="1.500000" stroke="#ff0000" fill="none" stroke-width=".1mm" />
<circle  cx="152.874969" cy="105.362854" r="1.500000" stroke="#ff0000" fill="none" stroke-width=".1mm" />
<circle  cx="140.340973" cy="107.385582" r="1.500000" stroke="#ff0000" fill="none" stroke-width=".1mm" />
<circle  cx="138.391495" cy="119.931175" r="1.500000" stroke="#ff0000" fill="none" stroke-width=".1mm" />
<path stroke="#0000ff" fill="none" stroke-width=".1mm" d="M187.238113 129.300705 L195.336899 121.154488 Q198.786530 117.763885, 196.528473 113.486359 L196.528473 113.486359 L191.283615 103.266632 Q189.124954 98.938087, 184.358994 99.763809 L184.358994 99.763809 L173.018723 101.593895 Q168.234955 102.309303, 167.547516 107.097153 L167.547516 107.097153 L165.783691 118.447945 Q164.985809 123.218628, 169.326889 125.351959 L169.326889 125.351959 L179.577087 130.537048 Q183.867722 132.770096, 187.238113 129.300720 Z" />
<circle  cx="182.720642" cy="125.662056" r="1.500000" stroke="#0000ff" fill="none" stroke-width=".1mm" />
<circle  cx="191.671921" cy="116.658333" r="1.500000" stroke="#ff0000" fill="none" stroke-width=".1mm" />
<circle  cx="185.874969" cy="105.362854" r="1.500000" stroke="#ff0000" fill="none" stroke-width=".1mm" />
<circle  cx="173.340973" cy="107.385582" r="1.500000" stroke="#ff0000" fill="none" stroke-width=".1mm" />
<circle  cx="171.391495" cy="119.931175" r="1.500000" stroke="#ff0000" fill="none" stroke-width=".1mm" />
<path stroke="#0000ff" fill="none" stroke-width=".1mm" d="M220.238113 129.300705 L228.336899 121.154488 Q231.786530 117.763885, 229.528473 113.486359 L229.528473 113.486359 L224.283615 103.266632 Q222.124954 98.938087, 217.358994 99.763809 L217.358994 99.763809 L206.018723 101.593895 Q201.234955 102.309303, 200.547516 107.097153 L200.547516 107.097153 L198.783691 118.447945 Q197.985809 123.218628, 202.326889 125.351959 L202.326889 125.351959 L212.577087 130.537048 Q216.867722 132.770096, 220.238113 129.300720 Z" />
<circle  cx="215.720642" cy="125.662056" r="1.500000" stroke="#0000ff" fill="none" stroke-width=".1mm" />
<circle  cx="224.671921" cy="116.658333" r="1.500000" stroke="#ff0000" fill="none" stroke-width=".1mm" />
<circle  cx="218.874969" cy="105.362854" r="1.500000" stroke="#ff0000" fill="none" stroke-width=".1mm" />
<circle  cx="206.340973" cy="107.385582" r="1.500000" stroke="#ff0000" fill="none" stroke-width=".1mm" />
<circle  cx="204.391495" cy="119.931175" r="1.500000" stroke="#ff0000" fill="none" stroke-width=".1mm" />
<path stroke="#0000ff" fill="none" stroke-width=".1mm" d="M22.238117 162.300705 L30.336903 154.154480 Q33.786537 150.763885, 31.528469 146.486359 L31.528469 146.486359 L26.283609 136.266632 Q24.124954 131.938080, 19.359001 132.763809 L19.359001 132.763809 L8.018717 134.593903 Q3.234960 135.309311, 2.547509 140.097153 L2.547509 140.097153 L0.783688 151.447937 Q-0.014185 156.218628, 4.326896 158.351959 L4.326896 158.351959 L14.577089 163.537048 Q18.867729 165.770096, 22.238113 162.300720 Z" />
<circle  cx="17.720636" cy="158.662048" r="1.500000" stroke="#0000ff" fill="none" stroke-width=".1mm" />
<circle  cx="26.671923" cy="149.658340" r="1.500000" stroke="#ff0000" fill="none" stroke-width=".1mm" />
<circle  cx="20.874973" cy="138.362854" r="1.500000" stroke="#ff0000" fill="none" stroke-width=".1mm" />
<circle  cx="8.340976" cy="140.385590" r="1.500000" stroke="#ff0000" fill="none" stroke-width=".1mm" />
<circle  cx="6.391489" cy="152.931183" r="1.500000" stroke="#ff0000" fill="none" stroke-width=".1mm" />
<path stroke="#0000ff" fill="none" stroke-width=".1mm" d="M55.238117 162.300705 L63.336903 154.154480 Q66.786537 150.763885, 64.528473 146.486359 L64.528473 146.486359 L59.283607 136.266632 Q57.124954 131.938080, 52.359001 132.763809 L52.359001 132.763809 L41.018715 134.593903 Q36.234959 135.309311, 35.547508 140.097153 L35.547508 140.097153 L33.783688 151.447937 Q32.985817 156.218628, 37.326897 158.351959 L37.326897 158.351959 L47.577091 163.537048 Q51.867729 165.770096, 55.238113 162.300720 Z" />
<circle  cx="50.720638" cy="158.662048" r="1.500000" stroke="#0000ff" fill="none" stroke-width=".1mm" />
<circle  cx="59.671921" cy="149.658340" r="1.500000" stroke="#ff0000" fill="none" stroke-width=".1mm" />
<circle  cx="53.874973" cy="138.362854" r="1.500000" stroke="#ff0000" fill="none" stroke-width=".1mm" />
<circle  cx="41.340977" cy="140.385590" r="1.500000" stroke="#ff0000" fill="none" stroke-width=".1mm" />
<circle  cx="39.391487" cy="152.931183" r="1.500000" stroke="#ff0000" fill="none" stroke-width=".1mm" />
<path stroke="#0000ff" fill="none" stroke-width=".1mm" d="M88.238121 162.300705 L96.336899 154.154480 Q99.786537 150.763885, 97.528473 146.486359 L97.528473 146.486359 L92.283607 136.266632 Q90.124954 131.938080, 85.359001 132.763809 L85.359001 132.763809 L74.018715 134.593903 Q69.234962 135.309311, 68.547508 140.097153 L68.547508 140.097153 L66.783691 151.447937 Q65.985817 156.218628, 70.326897 158.351959 L70.326897 158.351959 L80.577087 163.537048 Q84.867729 165.770096, 88.238113 162.300720 Z" />
<circle  cx="83.720634" cy="158.662048" r="1.500000" stroke="#0000ff" fill="none" stroke-width=".1mm" />
<circle  cx="92.671921" cy="149.658340" r="1.500000" stroke="#ff0000" fill="none" stroke-width=".1mm" />
<circle  cx="86.874969" cy="138.362854" r="1.500000" stroke="#ff0000" fill="none" stroke-width=".1mm" />
<circle  cx="74.340973" cy="140.385590" r="1.500000" stroke="#ff0000" fill="none" stroke-width=".1mm" />
<circle  cx="72.391487" cy="152.931183" r="1.500000" stroke="#ff0000" fill="none" stroke-width=".1mm" />
<path stroke="#0000ff" fill="none" stroke-width=".1mm" d="M121.238121 162.300705 L129.336899 154.154480 Q132.786530 150.763885, 130.528473 146.486359 L130.528473 146.486359 L125.283607 136.266632 Q123.124954 131.938080, 118.359001 132.763809 L118.359001 132.763809 L107.018715 134.593903 Q102.234962 135.309311, 101.547508 140.097153 L101.547508 140.097153 L99.783691 151.447937 Q98.985817 156.218628, 103.326897 158.351959 L103.326897 158.351959 L113.577087 163.537048 Q117.867729 165.770096, 121.238113 162.300720 Z" />
<circle  cx="116.720634" cy="158.662048" r="1.500000" stroke="#0000ff" fill="none" stroke-width=".1mm" />
<circle  cx="125.671921" cy="149.658340" r="1.500000" stroke="#ff0000" fill="none" stroke-width=".1mm" />
<circle  cx="119.874969" cy="138.362854" r="1.500000" stroke="#ff0000" fill="none" stroke-width=".1mm" />
<circle  cx="107.340973" cy="140.385590" r="1.500000" stroke="#ff0000" fill="none" stroke-width=".1mm" />
<circle  cx="105.391487" cy="152.931183" r="1.500000" stroke="#ff0000" fill="none" stroke-width=".1mm" />
<path stroke="#0000ff" fill="none" stroke-width=".1mm" d="M154.238113 162.300705 L162.336899 154.154480 Q165.786530 150.763885, 163.528473 146.486359 L163.528473 146.486359 L158.283615 136.266632 Q156.124954 131.938080, 151.358994 132.763809 L151.358994 132.763809 L140.018723 134.593903 Q135.234955 135.309311, 134.547516 140.097153 L134.547516 140.097153 L132.783691 151.447937 Q131.985809 156.218628, 136.326889 158.351959 L136.326889 158.351959 L146.577087 163.537048 Q150.867722 165.770096, 154.238113 162.300720 Z" />
<circle  cx="149.720642" cy="158.662048" r="1.500000" stroke="#0000ff" fill="none" stroke-width=".1mm" />
<circle  cx="158.671921" cy="149.658340" r="1.500000" stroke="#ff0000" fill="none" stroke-width=".1mm" />
<circle  cx="152.874969" cy="138.362854" r="1.500000" stroke="#ff0000" fill="none" stroke-width=".1mm" />
<circle  cx="140.340973" cy="140.385590" r="1.500000" stroke="#ff0000" fill="none" stroke-width=".1mm" />
<circle  cx="138.391495" cy="152.931183" r="1.500000" stroke="#ff0000" fill="none" stroke-width=".1mm" />
<path stroke="#0000ff" fill="none" stroke-width=".1mm" d="M187.238113 162.300705 L195.336899 154.154480 Q198.786530 150.763885, 196.528473 146.486359 L196.528473 146.486359 L191.283615 136.266632 Q189.124954 131.938080, 184.358994 132.763809 L184.358994 132.763809 L173.018723 134.593903 Q168.234955 135.309311, 167.547516 140.097153 L167.547516 140.097153 L165.783691 151.447937 Q164.985809 156.218628, 169.326889 158.351959 L169.326889 158.351959 L179.577087 163.537048 Q183.867722 165.770096, 187.238113 162.300720 Z" />
<circle  cx="182.720642" cy="158.662048" r="1.500000" stroke="#0000ff" fill="none" stroke-width=".1mm" />
<circle  cx="191.671921" cy="149.658340" r="1.500000" stroke="#ff0000" fill="none" stroke-width=".1mm" />
<circle  cx="185.874969" cy="138.362854" r="1.500000" stroke="#ff0000" fill="none" stroke-width=".1mm" />
<circle  cx="173.340973" cy="140.385590" r="1.500000" stroke="#ff0000" fill="none" stroke-width=".1mm" />
<circle  cx="171.391495" cy="152.931183" r="1.500000" stroke="#ff0000" fill="none" stroke-width=".1mm" />
<path stroke="#0000ff" fill="none" stroke-width=".1mm" d="M220.238113 162.300705 L228.336899 154.154480 Q231.786530 150.763885, 229.528473 146.486359 L229.528473 146.486359 L224.283615 136.266632 Q222.124954 131.938080, 217.358994 132.763809 L217.358994 132.763809 L206.018723 134.593903 Q201.234955 135.309311, 200.547516 140.097153 L200.547516 140.097153 L198.783691 151.447937 Q197.985809 156.218628, 202.326889 158.351959 L202.326889 158.351959 L212.577087 163.537048 Q216.867722 165.770096, 220.238113 162.300720 Z" />
<circle  cx="215.720642" cy="158.662048" r="1.500000" stroke="#0000ff" fill="none" stroke-width=".1mm" />
<circle  cx="224.671921" cy="149.658340" r="1.500000" stroke="#ff0000" fill="none" stroke-width=".1mm" />
<circle  cx="218.874969" cy="138.362854" r="1.500000" stroke="#ff0000" fill="none" stroke-width=".1mm" />
<circle  cx="206.340973" cy="140.385590" r="1.500000" stroke="#ff0000" fill="none" stroke-width=".1mm" />
<circle  cx="204.391495" cy="152.931183" r="1.500000" stroke="#ff0000" fill="none" stroke-width=".1mm" />
<path stroke="#0000ff" fill="none" stroke-width=".1mm" d="M22.238117 195.300705 L30.336903 187.154480 Q33.786537 183.763885, 31.528469 179.486359 L31.528469 179.486359 L26.283609 169.266632 Q24.124954 164.938080, 19.359001 165.763809 L19.359001 165.763809 L8.018717 167.593903 Q3.234960 168.309311, 2.547509 173.097153 L2.547509 173.097153 L0.783688 184.447937 Q-0.014185 189.218628, 4.326896 191.351959 L4.326896 191.351959 L14.577089 196.537048 Q18.867729 198.770096, 22.238113 195.300720 Z" />
<circle  cx="17.720636" cy="191.662048" r="1.500000" stroke="#0000ff" fill="none" stroke-width=".1mm" />
<circle  cx="26.671923" cy="182.658340" r="1.500000" stroke="#ff0000" fill="none" stroke-width=".1mm" />
<circle  cx="20.874973" cy="171.362854" r="1.500000" stroke="#ff0000" fill="none" stroke-width=".1mm" />
<circle  cx="8.340976" cy="173.385590" r="1.500000" stroke="#ff0000" fill="none" stroke-width=".1mm" />
<circle  cx="6.391489" cy="185.931183" r="1.500000" stroke="#ff0000" fill="none" stroke-width=".1mm" />
<path stroke="#0000ff" fill="none" stroke-width=".1mm" d="M55.238117 195.300705 L63.336903 187.154480 Q66.786537 183.763885, 64.528473 179.486359 L64.528473 179.486359 L59.283607 169.266632 Q57.124954 164.938080, 52.359001 165.763809 L52.359001 165.763809 L41.018715 167.593903 Q36.234959 168.309311, 35.547508 173.097153 L35.547508 173.097153 L33.783688 184.447937 Q32.985817 189.218628, 37.326897 191.351959 L37.326897 191.351959 L47.577091 196.537048 Q51.867729 198.770096, 55.238113 195.300720 Z" />
<circle  cx="50.720638" cy="191.662048" r="1.500000" stroke="#0000ff" fill="none" stroke-width=".1mm" />
<circle  cx="59.671921" cy="182.658340" r="1.500000" stroke="#ff0000" fill="none" stroke-width=".1mm" />
<circle  cx="53.874973" cy="171.362854" r="1.500000" stroke="#ff0000" fill="none" stroke-width=".1mm" />
<circle  cx="41.340977" cy="173.385590" r="1.500000" stroke="#ff0000" fill="none" stroke-width=".1mm" />
<circle  cx="39.391487" cy="185.931183" r="1.500000" stroke="#ff0000" fill="none" stroke-width=".1mm" />
<path stroke="#0000ff" fill="none" stroke-width=".1mm" d="M88.238121 195.300705 L96.336899 187.154480 Q99.786537 183.763885, 97.528473 179.486359 L97.528473 179.486359 L92.283607 169.266632 Q90.124954 164.938080, 85.359001 165.763809 L85.359001 165.763809 L74.018715 167.593903 Q69.234962 168.309311, 68.547508 173.097153 L68.547508 173.097153 L66.783691 184.447937 Q65.985817 189.218628, 70.326897 191.351959 L70.326897 191.351959 L80.577087 196.537048 Q84.867729 198.770096, 88.238113 195.300720 Z" />
<circle  cx="83.720634" cy="191.662048" r="1.500000" stroke="#0000ff" fill="none" stroke-width=".1mm" />
<circle  cx="92.671921" cy="182.658340" r="1.500000" stroke="#ff0000" fill="none" stroke-width=".1mm" />
<circle  cx="86.874969" cy="171.362854" r="1.500000" stroke="#ff0000" fill="none" stroke-width=".1mm" />
<circle  cx="74.340973" cy="173.385590" r="1.500000" stroke="#ff0000" fill="none" stroke-width=".1mm" />
<circle  cx="72.391487" cy="185.931183" r="1.500000" stroke="#ff0000" fill="none" stroke-width=".1mm" />
<path stroke="#0000ff" fill="none" stroke-width=".1mm" d="M121.238121 195.300705 L129.336899 187.154480 Q132.786530 183.763885, 130.528473 179.486359 L130.528473 179.486359 L125.283607 169.266632 Q123.124954 164.938080, 118.359001 165.763809 L118.359001 165.763809 L107.018715 167.593903 Q102.234962 168.309311, 101.547508 173.097153 L101.547508 173.097153 L99.783691 184.447937 Q98.985817 189.218628, 103.326897 191.351959 L103.326897 191.351959 L113.577087 196.537048 Q117.867729 198.770096, 121.238113 195.300720 Z" />
<circle  cx="116.720634" cy="191.662048" r="1.500000" stroke="#0000ff" fill="none" stroke-width=".1mm" />
<circle  cx="125.671921" cy="182.658340" r="1.500000" stroke="#ff0000" fill="none" stroke-width=".1mm" />
<circle  cx="119.874969" cy="171.362854" r="1.500000" stroke="#ff0000" fill="none" stroke-width=".1mm" />
<circle  cx="107.340973" cy="173.385590" r="1.500000" stroke="#ff0000" fill="none" stroke-width=".1mm" />
<circle  cx="105.391487" cy="185.931183" r="1.500000" stroke="#ff0000" fill="none" stroke-width=".1mm" />
<path stroke="#0000ff" fill="none" stroke-width=".1mm" d="M154.238113 195.300705 L162.336899 187.154480 Q165.786530 183.763885, 163.528473 179.486359 L163.528473 179.486359 L158.283615 169.266632 Q156.124954 164.938080, 151.358994 165.763809 L151.358994 165.763809 L140.018723 167.593903 Q135.234955 168.309311, 134.547516 173.097153 L134.547516 173.097153 L132.783691 184.447937 Q131.985809 189.218628, 136.326889 191.351959 L136.326889 191.351959 L146.577087 196.537048 Q150.867722 198.770096, 154.238113 195.300720 Z" />
<circle  cx="149.720642" cy="191.662048" r="1.500000" stroke="#0000ff" fill="none" stroke-width=".1mm" />
<circle  cx="158.671921" cy="182.658340" r="1.500000" stroke="#ff0000" fill="none" stroke-width=".1mm" />
<circle  cx="152.874969" cy="171.362854" r="1.500000" stroke="#ff0000" fill="none" stroke-width=".1mm" />
<circle  cx="140.340973" cy="173.385590" r="1.500000" stroke="#ff0000" fill="none" stroke-width=".1mm" />
<circle  cx="138.391495" cy="185.931183" r="1.500000" stroke="#ff0000" fill="none" stroke-width=".1mm" />
<path stroke="#0000ff" fill="none" stroke-width=".1mm" d="M187.238113 195.300705 L195.336899 187.154480 Q198.786530 183.763885, 196.528473 179.486359 L196.528473 179.486359 L191.283615 169.266632 Q189.124954 164.938080, 184.358994 165.763809 L184.358994 165.763809 L173.018723 167.593903 Q168.234955 168.309311, 167.547516 173.097153 L167.547516 173.097153 L165.783691 184.447937 Q164.985809 189.218628, 169.326889 191.351959 L169.326889 191.351959 L179.577087 196.537048 Q183.867722 198.770096, 187.238113 195.300720 Z" />
<circle  cx="182.720642" cy="191.662048" r="1.500000" stroke="#0000ff" fill="none" stroke-width=".1mm" />
<circle  cx="191.671921" cy="182.658340" r="1.500000" stroke="#ff0000" fill="none" stroke-width=".1mm" />
<circle  cx="185.874969" cy="171.362854" r="1.500000" stroke="#ff0000" fill="none" stroke-width=".1mm" />
<circle  cx="173.340973" cy="173.385590" r="1.500000" stroke="#ff0000" fill="none" stroke-width=".1mm" />
<circle  cx="171.391495" cy="185.931183" r="1.500000" stroke="#ff0000" fill="none" stroke-width=".1mm" />
<path stroke="#0000ff" fill="none" stroke-width=".1mm" d="M220.238113 195.300705 L228.336899 187.154480 Q231.786530 183.763885, 229.528473 179.486359 L229.528473 179.486359 L224.283615 169.266632 Q222.124954 164.938080, 217.358994 165.763809 L217.358994 165.763809 L206.018723 167.593903 Q201.234955 168.309311, 200.547516 173.097153 L200.547516 173.097153 L198.783691 184.447937 Q197.985809 189.218628, 202.326889 191.351959 L202.326889 191.351959 L212.577087 196.537048 Q216.867722 198.770096, 220.238113 195.300720 Z" />
<circle  cx="215.720642" cy="191.662048" r="1.500000" stroke="#0000ff" fill="none" stroke-width=".1mm" />
<circle  cx="224.671921" cy="182.658340" r="1.500000" stroke="#ff0000" fill="none" stroke-width=".1mm" />
<circle  cx="218.874969" cy="171.362854" r="1.500000" stroke="#ff0000" fill="none" stroke-width=".1mm" />
<circle  cx="206.340973" cy="173.385590" r="1.500000" stroke="#ff0000" fill="none" stroke-width=".1mm" />
<circle  cx="204.391495" cy="185.931183" r="1.500000" stroke="#ff0000" fill="none" stroke-width=".1mm" />
<path stroke="#ff0000" fill="none" stroke-width=".1mm" d="Z" />
<path stroke="#ff0000" fill="none" stroke-width=".1mm" d="Z" />
<path stroke="#ff0000" fill="none" stroke-width=".1mm" d="Z" />
<path stroke="#ff0000" fill="none" stroke-width=".1mm" d="M53.202728 29.129690 L62.154015 20.125969 A3.500000 3.500000 0 0 0 57.189835 15.190698 L48.238544 24.194420 A3.500000 3.500000 0 0 0 53.202728 29.129690 Z" />
<path stroke="#ff0000" fill="none" stroke-width=".1mm" d="Z" />
<path stroke="#ff0000" fill="none" stroke-width=".1mm" d="M95.785789 16.060266 L89.988846 4.764784 A3.500000 3.500000 0 0 0 83.761101 7.960918 L89.558052 19.256401 A3.500000 3.500000 0 0 0 95.785789 16.060266 Z" />
<path stroke="#ff0000" fill="none" stroke-width=".1mm" d="Z" />
<path stroke="#ff0000" fill="none" stroke-width=".1mm" d="M119.317360 2.907557 L106.783363 4.930288 A3.500000 3.500000 0 0 0 107.898590 11.840878 L120.432587 9.818146 A3.500000 3.500000 0 0 0 119.317360 2.907557 Z" />
<path stroke="#ff0000" fill="none" stroke-width=".1mm" d="Z" />
<path stroke="#ff0000" fill="none" stroke-width=".1mm" d="M136.882477 7.848160 L134.932999 20.393757 A3.500000 3.500000 0 0 0 141.849976 21.468601 L143.799469 8.923006 A3.500000 3.500000 0 0 0 136.882477 7.848160 Z" />
<path stroke="#ff0000" fill="none" stroke-width=".1mm" d="Z" />
<path stroke="#ff0000" fill="none" stroke-width=".1mm" d="M169.811630 24.054329 L181.140778 29.785206 A3.500000 3.500000 0 0 0 184.300491 23.538906 L172.971344 17.808029 A3.500000 3.500000 0 0 0 169.811630 24.054329 Z" />
<path stroke="#ff0000" fill="none" stroke-width=".1mm" d="Z" />
<path stroke="#ff0000" fill="none" stroke-width=".1mm" d="M219.179123 27.199478 L222.333466 6.900273 A3.500000 3.500000 0 0 0 215.416473 5.825429 L212.262146 26.124634 A3.500000 3.500000 0 0 0 219.179123 27.199478 Z" />
<path stroke="#ff0000" fill="none" stroke-width=".1mm" d="Z" />
<path stroke="#ff0000" fill="none" stroke-width=".1mm" d="M28.251774 47.535183 L9.920828 38.262432 A3.500000 3.500000 0 0 0 6.761124 44.508732 L25.092072 53.781483 A3.500000 3.500000 0 0 0 28.251774 47.535183 Z" />
<path stroke="#ff0000" fill="none" stroke-width=".1mm" d="Z" />
<path stroke="#ff0000" fill="none" stroke-width=".1mm" d="M51.392883 36.895218 L36.909397 51.463543 A3.500000 3.500000 0 0 0 41.873581 56.398815 L56.357063 41.830486 A3.500000 3.500000 0 0 0 51.392883 36.895218 Z" />
<path stroke="#ff0000" fill="none" stroke-width=".1mm" d="Z" />
<path stroke="#ff0000" fill="none" stroke-width=".1mm" d="M71.227104 42.983650 L80.606766 61.260124 A3.500000 3.500000 0 0 0 86.834503 58.063988 L77.454842 39.787514 A3.500000 3.500000 0 0 0 71.227104 42.983650 Z" />
<path stroke="#ff0000" fill="none" stroke-width=".1mm" d="Z" />
<path stroke="#ff0000" fill="none" stroke-width=".1mm" d="M105.949104 57.386475 L126.229538 54.113628 A3.500000 3.500000 0 0 0 125.114311 47.203037 L104.833878 50.475883 A3.500000 3.500000 0 0 0 105.949104 57.386475 Z" />
<path stroke="#ff0000" fill="none" stroke-width=".1mm" d="Z" />
<path stroke="#ff0000" fill="none" stroke-width=".1mm" d="M152.202728 62.129692 L161.154007 53.125969 A3.500000 3.500000 0 0 0 160.251770 47.535183 L141.920822 38.262432 A3.500000 3.500000 0 0 0 137.227112 42.983650 L146.606766 61.260124 A3.500000 3.500000 0 0 0 152.202728 62.129692 Z" />
<path stroke="#ff0000" fill="none" stroke-width=".1mm" d="Z" />
<path stroke="#ff0000" fill="none" stroke-width=".1mm" d="M194.785797 49.060265 L188.988846 37.764786 A3.500000 3.500000 0 0 0 183.392883 36.895218 L168.909393 51.463543 A3.500000 3.500000 0 0 0 171.949097 57.386475 L192.229538 54.113628 A3.500000 3.500000 0 0 0 194.785797 49.060265 Z" />
<path stroke="#ff0000" fill="none" stroke-width=".1mm" d="Z" />
<path stroke="#ff0000" fill="none" stroke-width=".1mm" d="M218.317352 35.907555 L205.783356 37.930290 A3.500000 3.500000 0 0 0 203.227112 42.983650 L212.606766 61.260124 A3.500000 3.500000 0 0 0 219.179123 60.199478 L222.333466 39.900272 A3.500000 3.500000 0 0 0 218.317352 35.907555 Z" />
<path stroke="#ff0000" fill="none" stroke-width=".1mm" d="Z" />
<path stroke="#ff0000" fill="none" stroke-width=".1mm" d="M4.882483 73.848160 L2.932995 86.393753 A3.500000 3.500000 0 0 0 6.949102 90.386475 L27.229536 87.113632 A3.500000 3.500000 0 0 0 28.251774 80.535187 L9.920828 71.262436 A3.500000 3.500000 0 0 0 4.882483 73.848160 Z" />
<path stroke="#ff0000" fill="none" stroke-width=".1mm" d="Z" />
<path stroke="#ff0000" fill="none" stroke-width=".1mm" d="M37.811638 90.054329 L49.140785 95.785202 A3.500000 3.500000 0 0 0 53.202728 95.129692 L62.154015 86.125969 A3.500000 3.500000 0 0 0 59.114311 80.203041 L38.833878 83.475883 A3.500000 3.500000 0 0 0 37.811638 90.054329 Z" />
<path stroke="#ff0000" fill="none" stroke-width=".1mm" d="Z" />
<path stroke="#ff0000" fill="none" stroke-width=".1mm" d="M86.202728 95.129692 L95.154015 86.125969 A3.500000 3.500000 0 0 0 95.785789 82.060265 L89.988846 70.764786 A3.500000 3.500000 0 0 0 83.416481 71.825432 L80.262146 92.124634 A3.500000 3.500000 0 0 0 86.202728 95.129692 Z" />
<path stroke="#ff0000" fill="none" stroke-width=".1mm" d="Z" />
<path stroke="#ff0000" fill="none" stroke-width=".1mm" d="M128.785797 82.060265 L122.988846 70.764786 A3.500000 3.500000 0 0 0 119.317360 68.907555 L106.783363 70.930290 A3.500000 3.500000 0 0 0 105.761124 77.508736 L124.092072 86.781487 A3.500000 3.500000 0 0 0 128.785797 82.060265 Z" />
<path stroke="#ff0000" fill="none" stroke-width=".1mm" d="Z" />
<path stroke="#ff0000" fill="none" stroke-width=".1mm" d="M152.317352 68.907555 L139.783356 70.930290 A3.500000 3.500000 0 0 0 136.882477 73.848160 L134.932999 86.393753 A3.500000 3.500000 0 0 0 140.873581 89.398811 L155.357056 74.830490 A3.500000 3.500000 0 0 0 152.317352 68.907555 Z" />
<path stroke="#ff0000" fill="none" stroke-width=".1mm" d="Z" />
<path stroke="#ff0000" fill="none" stroke-width=".1mm" d="M169.882477 73.848160 L167.932999 86.393753 A3.500000 3.500000 0 0 0 169.811630 90.054329 L181.140778 95.785202 A3.500000 3.500000 0 0 0 185.834503 91.063988 L176.454849 72.787514 A3.500000 3.500000 0 0 0 169.882477 73.848160 Z" />
<path stroke="#ff0000" fill="none" stroke-width=".1mm" d="Z" />
<path stroke="#ff0000" fill="none" stroke-width=".1mm" d="M202.811630 90.054329 L214.140778 95.785202 A3.500000 3.500000 0 0 0 218.202728 95.129692 L227.154007 86.125969 A3.500000 3.500000 0 0 0 224.114304 80.203041 L203.833878 83.475883 A3.500000 3.500000 0 0 0 202.811630 90.054329 Z" />
<path stroke="#ff0000" fill="none" stroke-width=".1mm" d="Z" />
<path stroke="#ff0000" fill="none" stroke-width=".1mm" d="M20.202728 128.129684 L29.154013 119.125969 A3.500000 3.500000 0 0 0 24.189833 114.190697 L15.238546 123.194420 A3.500000 3.500000 0 0 0 20.202728 128.129684 Z" />
<path stroke="#ff0000" fill="none" stroke-width=".1mm" d="M20.317358 101.907555 L7.783361 103.930290 A3.500000 3.500000 0 0 0 8.898590 110.840881 L21.432587 108.818146 A3.500000 3.500000 0 0 0 20.317358 101.907555 Z" />
<path stroke="#ff0000" fill="none" stroke-width=".1mm" d="Z" />
<path stroke="#ff0000" fill="none" stroke-width=".1mm" d="M62.785789 115.060265 L56.988842 103.764786 A3.500000 3.500000 0 0 0 50.761105 106.960922 L56.558052 118.256401 A3.500000 3.500000 0 0 0 62.785789 115.060265 Z" />
<path stroke="#ff0000" fill="none" stroke-width=".1mm" d="M37.882484 106.848160 L35.932995 119.393753 A3.500000 3.500000 0 0 0 42.849983 120.468597 L44.799469 107.923004 A3.500000 3.500000 0 0 0 37.882484 106.848160 Z" />
<path stroke="#ff0000" fill="none" stroke-width=".1mm" d="Z" />
<path stroke="#ff0000" fill="none" stroke-width=".1mm" d="M86.317360 101.907555 L73.783363 103.930290 A3.500000 3.500000 0 0 0 74.898590 110.840881 L87.432587 108.818146 A3.500000 3.500000 0 0 0 86.317360 101.907555 Z" />
<path stroke="#ff0000" fill="none" stroke-width=".1mm" d="M70.811638 123.054329 L82.140785 128.785202 A3.500000 3.500000 0 0 0 85.300491 122.538902 L73.971344 116.808029 A3.500000 3.500000 0 0 0 70.811638 123.054329 Z" />
<path stroke="#ff0000" fill="none" stroke-width=".1mm" d="Z" />
<path stroke="#ff0000" fill="none" stroke-width=".1mm" d="M103.882484 106.848160 L101.932999 119.393753 A3.500000 3.500000 0 0 0 108.849983 120.468597 L110.799469 107.923004 A3.500000 3.500000 0 0 0 103.882484 106.848160 Z" />
<path stroke="#ff0000" fill="none" stroke-width=".1mm" d="M119.202728 128.129684 L128.154007 119.125969 A3.500000 3.500000 0 0 0 123.189835 114.190697 L114.238548 123.194420 A3.500000 3.500000 0 0 0 119.202728 128.129684 Z" />
<path stroke="#ff0000" fill="none" stroke-width=".1mm" d="Z" />
<path stroke="#ff0000" fill="none" stroke-width=".1mm" d="M136.811630 123.054329 L148.140778 128.785202 A3.500000 3.500000 0 0 0 151.300491 122.538902 L139.971344 116.808029 A3.500000 3.500000 0 0 0 136.811630 123.054329 Z" />
<path stroke="#ff0000" fill="none" stroke-width=".1mm" d="M161.785797 115.060265 L155.988846 103.764786 A3.500000 3.500000 0 0 0 149.761108 106.960922 L155.558060 118.256401 A3.500000 3.500000 0 0 0 161.785797 115.060265 Z" />
<path stroke="#ff0000" fill="none" stroke-width=".1mm" d="Z" />
<path stroke="#ff0000" fill="none" stroke-width=".1mm" d="M185.202728 128.129684 L194.154007 119.125969 A3.500000 3.500000 0 0 0 189.189835 114.190697 L180.238541 123.194420 A3.500000 3.500000 0 0 0 185.202728 128.129684 Z" />
<path stroke="#ff0000" fill="none" stroke-width=".1mm" d="M183.392883 102.895218 L168.909393 117.463547 A3.500000 3.500000 0 0 0 173.873581 122.398811 L188.357056 107.830490 A3.500000 3.500000 0 0 0 183.392883 102.895218 Z" />
<path stroke="#ff0000" fill="none" stroke-width=".1mm" d="Z" />
<path stroke="#ff0000" fill="none" stroke-width=".1mm" d="M227.785797 115.060265 L221.988846 103.764786 A3.500000 3.500000 0 0 0 215.761108 106.960922 L221.558060 118.256401 A3.500000 3.500000 0 0 0 227.785797 115.060265 Z" />
<path stroke="#ff0000" fill="none" stroke-width=".1mm" d="M203.227112 108.983650 L212.606766 127.260124 A3.500000 3.500000 0 0 0 218.834503 124.063988 L209.454849 105.787514 A3.500000 3.500000 0 0 0 203.227112 108.983650 Z" />
<path stroke="#ff0000" fill="none" stroke-width=".1mm" d="Z" />
<path stroke="#ff0000" fill="none" stroke-width=".1mm" d="M20.317358 134.907562 L7.783361 136.930283 A3.500000 3.500000 0 0 0 8.898590 143.840881 L21.432587 141.818146 A3.500000 3.500000 0 0 0 20.317358 134.907562 Z" />
<path stroke="#ff0000" fill="none" stroke-width=".1mm" d="M6.949102 156.386475 L27.229536 153.113632 A3.500000 3.500000 0 0 0 26.114309 146.203033 L5.833876 149.475876 A3.500000 3.500000 0 0 0 6.949102 156.386475 Z" />
<path stroke="#ff0000" fill="none" stroke-width=".1mm" d="Z" />
<path stroke="#ff0000" fill="none" stroke-width=".1mm" d="M37.882484 139.848160 L35.932995 152.393753 A3.500000 3.500000 0 0 0 42.849983 153.468597 L44.799469 140.923004 A3.500000 3.500000 0 0 0 37.882484 139.848160 Z" />
<path stroke="#ff0000" fill="none" stroke-width=".1mm" d="M54.179131 159.199478 L57.333466 138.900269 A3.500000 3.500000 0 0 0 50.416481 137.825424 L47.262142 158.124634 A3.500000 3.500000 0 0 0 54.179131 159.199478 Z" />
<path stroke="#ff0000" fill="none" stroke-width=".1mm" d="Z" />
<path stroke="#ff0000" fill="none" stroke-width=".1mm" d="M70.811638 156.054321 L82.140785 161.785202 A3.500000 3.500000 0 0 0 85.300491 155.538910 L73.971344 149.808029 A3.500000 3.500000 0 0 0 70.811638 156.054321 Z" />
<path stroke="#ff0000" fill="none" stroke-width=".1mm" d="M94.251778 146.535187 L75.920830 137.262436 A3.500000 3.500000 0 0 0 72.761124 143.508728 L91.092072 152.781479 A3.500000 3.500000 0 0 0 94.251778 146.535187 Z" />
<path stroke="#ff0000" fill="none" stroke-width=".1mm" d="Z" />
<path stroke="#ff0000" fill="none" stroke-width=".1mm" d="M119.202728 161.129684 L128.154007 152.125977 A3.500000 3.500000 0 0 0 123.189835 147.190704 L114.238548 156.194427 A3.500000 3.500000 0 0 0 119.202728 161.129684 Z" />
<path stroke="#ff0000" fill="none" stroke-width=".1mm" d="M119.317360 134.907562 L106.783363 136.930283 A3.500000 3.500000 0 0 0 103.882484 139.848160 L101.932999 152.393753 A3.500000 3.500000 0 0 0 107.873581 155.398819 L122.357063 140.830490 A3.500000 3.500000 0 0 0 119.317360 134.907562 Z" />
<path stroke="#ff0000" fill="none" stroke-width=".1mm" d="Z" />
<path stroke="#ff0000" fill="none" stroke-width=".1mm" d="M161.785797 148.060272 L155.988846 136.764786 A3.500000 3.500000 0 0 0 149.761108 139.960922 L155.558060 151.256393 A3.500000 3.500000 0 0 0 161.785797 148.060272 Z" />
<path stroke="#ff0000" fill="none" stroke-width=".1mm" d="M136.882477 139.848160 L134.932999 152.393753 A3.500000 3.500000 0 0 0 136.811630 156.054321 L148.140778 161.785202 A3.500000 3.500000 0 0 0 152.834503 157.063995 L143.454849 138.787521 A3.500000 3.500000 0 0 0 136.882477 139.848160 Z" />
<path stroke="#ff0000" fill="none" stroke-width=".1mm" d="Z" />
<path stroke="#ff0000" fill="none" stroke-width=".1mm" d="M185.317352 134.907562 L172.783356 136.930283 A3.500000 3.500000 0 0 0 173.898590 143.840881 L186.432587 141.818146 A3.500000 3.500000 0 0 0 185.317352 134.907562 Z" />
<path stroke="#ff0000" fill="none" stroke-width=".1mm" d="M169.811630 156.054321 L181.140778 161.785202 A3.500000 3.500000 0 0 0 185.202728 161.129684 L194.154007 152.125977 A3.500000 3.500000 0 0 0 191.114304 146.203033 L170.833878 149.475876 A3.500000 3.500000 0 0 0 169.811630 156.054321 Z" />
<path stroke="#ff0000" fill="none" stroke-width=".1mm" d="Z" />
<path stroke="#ff0000" fill="none" stroke-width=".1mm" d="M202.882477 139.848160 L200.932999 152.393753 A3.500000 3.500000 0 0 0 207.849976 153.468597 L209.799469 140.923004 A3.500000 3.500000 0 0 0 202.882477 139.848160 Z" />
<path stroke="#ff0000" fill="none" stroke-width=".1mm" d="M218.202728 161.129684 L227.154007 152.125977 A3.500000 3.500000 0 0 0 227.785797 148.060272 L221.988846 136.764786 A3.500000 3.500000 0 0 0 215.416473 137.825424 L212.262146 158.124634 A3.500000 3.500000 0 0 0 218.202728 161.129684 Z" />
<path stroke="#ff0000" fill="none" stroke-width=".1mm" d="Z" />
<path stroke="#ff0000" fill="none" stroke-width=".1mm" d="M4.811636 189.054321 L16.140783 194.785202 A3.500000 3.500000 0 0 0 19.300489 188.538910 L7.971342 182.808029 A3.500000 3.500000 0 0 0 4.811636 189.054321 Z" />
<path stroke="#ff0000" fill="none" stroke-width=".1mm" d="M29.785791 181.060272 L23.988842 169.764786 A3.500000 3.500000 0 0 0 20.317358 167.907562 L7.783361 169.930283 A3.500000 3.500000 0 0 0 6.761124 176.508728 L25.092072 185.781479 A3.500000 3.500000 0 0 0 29.785791 181.060272 Z" />
<path stroke="#ff0000" fill="none" stroke-width=".1mm" d="Z" />
<path stroke="#ff0000" fill="none" stroke-width=".1mm" d="M53.202728 194.129684 L62.154015 185.125977 A3.500000 3.500000 0 0 0 62.785789 181.060272 L56.988842 169.764786 A3.500000 3.500000 0 0 0 53.317360 167.907562 L40.783363 169.930283 A3.500000 3.500000 0 0 0 38.227108 174.983643 L47.606766 193.260117 A3.500000 3.500000 0 0 0 53.202728 194.129684 Z" />
<path stroke="#ff0000" fill="none" stroke-width=".1mm" d="Z" />
<path stroke="#ff0000" fill="none" stroke-width=".1mm" d="M95.785789 181.060272 L89.988846 169.764786 A3.500000 3.500000 0 0 0 86.317360 167.907562 L73.783363 169.930283 A3.500000 3.500000 0 0 0 70.882484 172.848160 L68.932999 185.393753 A3.500000 3.500000 0 0 0 72.949104 189.386475 L93.229538 186.113632 A3.500000 3.500000 0 0 0 95.785789 181.060272 Z" />
<path stroke="#ff0000" fill="none" stroke-width=".1mm" d="Z" />
<path stroke="#ff0000" fill="none" stroke-width=".1mm" d="M119.317360 167.907562 L106.783363 169.930283 A3.500000 3.500000 0 0 0 103.882484 172.848160 L101.932999 185.393753 A3.500000 3.500000 0 0 0 103.811638 189.054321 L115.140785 194.785202 A3.500000 3.500000 0 0 0 120.179131 192.199478 L123.333466 171.900269 A3.500000 3.500000 0 0 0 119.317360 167.907562 Z" />
<path stroke="#ff0000" fill="none" stroke-width=".1mm" d="Z" />
<path stroke="#ff0000" fill="none" stroke-width=".1mm" d="M136.882477 172.848160 L134.932999 185.393753 A3.500000 3.500000 0 0 0 136.811630 189.054321 L148.140778 194.785202 A3.500000 3.500000 0 0 0 152.202728 194.129684 L161.154007 185.125977 A3.500000 3.500000 0 0 0 160.251770 179.535187 L141.920822 170.262436 A3.500000 3.500000 0 0 0 136.882477 172.848160 Z" />
<path stroke="#ff0000" fill="none" stroke-width=".1mm" d="Z" />
<path stroke="#ff0000" fill="none" stroke-width=".1mm" d="M169.811630 189.054321 L181.140778 194.785202 A3.500000 3.500000 0 0 0 185.202728 194.129684 L194.154007 185.125977 A3.500000 3.500000 0 0 0 194.785797 181.060272 L188.988846 169.764786 A3.500000 3.500000 0 0 0 183.392883 168.895218 L168.909393 183.463547 A3.500000 3.500000 0 0 0 169.811630 189.054321 Z" />
<path stroke="#ff0000" fill="none" stroke-width=".1mm" d="Z" />
<path stroke="#ff0000" fill="none" stroke-width=".1mm" d="M218.202728 194.129684 L227.154007 185.125977 A3.500000 3.500000 0 0 0 227.785797 181.060272 L221.988846 169.764786 A3.500000 3.500000 0 0 0 218.317352 167.907562 L205.783356 169.930283 A3.500000 3.500000 0 0 0 202.882477 172.848160 L200.932999 185.393753 A3.500000 3.500000 0 0 0 202.811630 189.054321 L214.140778 194.785202 A3.500000 3.500000 0 0 0 218.202728 194.129684 Z" />
<path stroke="#ff0000" fill="none" stroke-width=".1mm" d="Z" />
<path stroke="#ff0000" fill="none" stroke-width=".1mm" d="Z" />
</svg>